<svg width="128" height="128" viewBox="0 0 128 128" fill="none" xmlns="http://www.w3.org/2000/svg">
<rect width="128" height="128" rx="10" fill="black"/>
<path d="M100.167 92.7432C91.9928 102.891 87.4133 105.778 81.1945 108.706C78.0467 110.189 74.1422 110.984 71.0259 111.407L70.7064 111.449L70.7239 111.44C67.2909 111.869 63.818 111.869 60.385 111.44V111.447C57.222 111.034 53.1718 110.237 49.9179 108.706C43.7026 105.778 39.1278 102.889 30.9492 92.7432C31.1136 92.9205 41.6985 104.266 52.3697 106.956C55.036 107.613 63.3125 108.968 65.5579 104.727C67.8081 108.968 76.0857 107.613 78.7462 106.956C89.4174 104.266 100.002 92.9205 100.167 92.7432Z" fill="white"/>
<mask id="mask0_695_371" style="mask-type:luminance" maskUnits="userSpaceOnUse" x="30" y="92" width="71" height="20">
<path d="M100.167 92.7422C91.9928 102.89 87.4133 105.777 81.1945 108.705C78.0467 110.188 74.1422 110.983 71.0259 111.406L70.7064 111.448L70.7239 111.439C67.2909 111.868 63.818 111.868 60.385 111.439V111.446C57.222 111.033 53.1718 110.236 49.9179 108.705C43.7026 105.777 39.1278 102.888 30.9492 92.7422C31.1136 92.9195 41.6985 104.265 52.3697 106.955C55.036 107.612 63.3125 108.967 65.5579 104.726C67.8081 108.967 76.0857 107.612 78.7462 106.955C89.4174 104.265 100.002 92.9195 100.167 92.7422Z" fill="white"/>
</mask>
<g mask="url(#mask0_695_371)">
<path d="M42.0283 102.053C42.0283 102.053 42.4072 104.182 45.0304 106.719C47.6536 109.256 40.0754 107.477 40.0754 107.477L29.1746 102.549L23.6367 91.5264C23.6367 91.5264 30.9525 91.089 31.7978 91.3514C32.643 91.6139 37.9769 95.4631 37.9769 95.4631L42.0283 102.053Z" fill="url(#paint0_linear_695_371)"/>
<path d="M89.267 101.944C89.267 101.944 88.8881 104.073 86.2649 106.61C83.6417 109.147 91.2198 107.368 91.2198 107.368L102.121 102.44L107.659 91.417C107.659 91.417 100.343 90.9796 99.4975 91.2421C98.6522 91.5045 93.3184 95.3537 93.3184 95.3537L89.267 101.944Z" fill="url(#paint1_linear_695_371)"/>
</g>
<path d="M65.5572 13C65.5572 13 63.4726 15.1742 63.6475 18.7598C63.8958 21.2373 64.1138 22.0841 64.2164 23.1036C64.319 24.123 64.7842 27.9746 64.5219 28.6593C64.5219 28.6593 65.0174 29.9272 65.0757 30.2048C65.134 30.4824 65.5549 32.2227 65.5572 32.2309C65.5572 32.2227 65.9792 30.4812 66.0375 30.2048C66.0958 29.9283 66.5913 28.6593 66.5913 28.6593C66.329 27.9746 66.7953 24.1254 66.8979 23.1036C67.0005 22.0818 67.2185 21.2373 67.4657 18.7598C67.6406 15.1742 65.5583 13 65.5572 13ZM75.4309 32.6928C75.4387 32.3508 75.3105 32.0197 75.0744 31.7723C74.8382 31.5249 74.5136 31.3815 74.1718 31.3736C74.1306 31.3712 74.0893 31.3712 74.0482 31.3736C73.7812 31.3584 71.0169 31.3642 68.5068 37.5043C68.5068 37.5043 70.2393 34.3713 74.3163 33.9397C74.6199 33.8982 74.8988 33.7499 75.103 33.5215C75.3072 33.293 75.4235 32.9992 75.4309 32.6928ZM67.482 39.0486C66.6741 37.4296 65.8253 33.0777 65.8253 33.0777L65.5618 32.3895L65.2984 33.0777C65.2984 33.0777 64.4449 37.4296 63.637 39.0486C63.44 39.4196 63.0249 40.0331 63.5274 41.4538C63.9938 42.7789 65.3776 44.8458 65.5618 45.1199C65.746 44.8458 67.1276 42.7789 67.5963 41.4538C68.0941 40.0331 67.6791 39.4196 67.482 39.0486ZM76.0418 39.7485C76.0418 39.7485 74.7885 37.4448 69.513 39.9818C69.513 39.9818 71.4366 39.1769 73.9223 40.5557C74.1814 40.7045 74.4286 40.8734 74.6614 41.0607C74.7341 41.1184 74.8151 41.1648 74.9016 41.1984C75.094 41.2731 75.3054 41.284 75.5044 41.2294C75.7035 41.1747 75.8797 41.0575 76.007 40.8949C76.1343 40.7323 76.206 40.5331 76.2114 40.3267C76.2168 40.1202 76.1557 39.9175 76.0372 39.7485H76.0418ZM71.2443 21.7599C71.097 21.7602 70.9508 21.785 70.8117 21.8333C66.8221 22.7525 67.1976 33.6819 67.1976 33.6819C67.1976 33.6819 67.4797 32.0909 68.6164 28.482C69.3952 26.0103 70.6975 24.9139 71.4401 24.4683L71.7899 24.3003L71.8155 24.2875L71.868 24.2572H71.8762C71.9572 24.2107 72.0351 24.1589 72.1093 24.102L72.121 24.0811C72.3221 23.9024 72.464 23.6667 72.528 23.4054C72.5921 23.1441 72.5752 22.8694 72.4795 22.618C72.3839 22.3665 72.2141 22.1501 71.9926 21.9974C71.7712 21.8448 71.5085 21.7632 71.2396 21.7634L71.2443 21.7599ZM74.5961 28.2545C74.5961 27.9701 74.5191 27.6911 74.3734 27.4469C74.2276 27.2027 74.0186 27.0026 73.7684 26.8676C73.7684 26.8676 73.7078 26.8362 73.6751 26.8233C73.4703 26.7291 73.2476 26.6802 73.0222 26.6798C72.9942 26.6798 72.9674 26.6798 72.9394 26.6798C72.0067 26.6798 71.3457 27.3179 71.3457 27.3179C70.3419 28.1612 68.9592 30.2339 67.9938 35.3149C67.9938 35.3149 68.916 31.4097 73.5434 29.7406C73.6665 29.6973 73.7839 29.6394 73.8931 29.5679C73.9439 29.5343 73.9908 29.4952 74.033 29.4513C74.2084 29.3049 74.3496 29.122 74.4469 28.9152C74.5442 28.7085 74.5951 28.483 74.5961 28.2545ZM74.49 35.3954C74.49 35.3954 71.7141 35.1621 69.0326 39.0965C70.4533 37.9068 72.2877 37.3296 74.1333 37.4915C74.2429 37.5031 74.3093 37.5136 74.3093 37.5136C74.3522 37.5197 74.3954 37.5228 74.4387 37.523C74.7166 37.5234 74.9835 37.415 75.1825 37.2209C75.3814 37.0269 75.4965 36.7627 75.5032 36.4848C75.51 36.207 75.4077 35.9375 75.2183 35.7341C75.029 35.5307 74.7676 35.4096 74.49 35.3966V35.3954ZM56.7969 33.9409C60.8774 34.3724 62.6075 37.5055 62.6075 37.5055C60.0974 31.3654 57.3332 31.3596 57.0662 31.3747C57.025 31.3724 56.9838 31.3724 56.9426 31.3747C56.6203 31.3846 56.3133 31.515 56.0823 31.7401C55.8514 31.9653 55.7131 32.2689 55.6948 32.591C55.6765 32.9131 55.7795 33.2304 55.9835 33.4803C56.1875 33.7302 56.4777 33.8945 56.7969 33.9409ZM54.8965 40.3014C54.8967 40.4579 54.935 40.612 55.0081 40.7504C55.0812 40.8888 55.1869 41.0073 55.3161 41.0956C55.4452 41.184 55.594 41.2395 55.7494 41.2574C55.9048 41.2753 56.0623 41.255 56.2081 41.1984C56.2946 41.1648 56.3756 41.1184 56.4483 41.0607C56.6817 40.8735 56.9292 40.7047 57.1886 40.5557C59.6742 39.1769 61.5967 39.9818 61.5967 39.9818C56.3212 37.4448 55.0679 39.7485 55.0679 39.7485C54.9551 39.9107 54.8952 40.1038 54.8965 40.3014ZM58.5433 23.0861C58.5431 23.2735 58.5826 23.4588 58.6594 23.6298C58.7362 23.8007 58.8484 23.9533 58.9887 24.0776L59.0108 24.0962C59.0851 24.153 59.1629 24.2049 59.244 24.2513H59.2522L59.3046 24.2817L59.3303 24.2945L59.6801 24.4625C60.4227 24.908 61.725 26.0045 62.5038 28.4761C63.6405 32.0851 63.9226 33.6761 63.9226 33.6761C63.9226 33.6761 64.2969 22.7467 60.3085 21.8275C60.1088 21.7581 59.8954 21.7375 59.6861 21.7674C59.4769 21.7973 59.2778 21.8769 59.1056 21.9996C58.9334 22.1222 58.793 22.2843 58.6962 22.4723C58.5994 22.6603 58.549 22.8688 58.5492 23.0803L58.5433 23.0861ZM57.0813 29.4548C57.123 29.4992 57.17 29.5384 57.2212 29.5714C57.3305 29.6427 57.4479 29.7007 57.571 29.7441C62.1983 31.4132 63.1205 35.3184 63.1205 35.3184C62.1552 30.2374 60.7725 28.1647 59.7698 27.3214C59.7698 27.3214 59.1076 26.6798 58.1749 26.6833C58.1481 26.6833 58.1213 26.6833 58.0933 26.6833C57.8675 26.6836 57.6445 26.7326 57.4393 26.8268C57.4078 26.8397 57.3472 26.8711 57.3472 26.8711C57.1224 26.9932 56.9308 27.1683 56.789 27.3812C56.6472 27.5941 56.5594 27.8383 56.5332 28.0928C56.507 28.3473 56.5432 28.6044 56.6388 28.8417C56.7343 29.079 56.8862 29.2895 57.0813 29.4548ZM55.617 36.4533C55.6169 36.5931 55.6442 36.7316 55.6976 36.8608C55.751 36.99 55.8293 37.1074 55.928 37.2063C56.0268 37.3052 56.144 37.3837 56.2731 37.4372C56.4022 37.4907 56.5406 37.5183 56.6803 37.5183C56.724 37.5181 56.7676 37.515 56.8109 37.509C56.8109 37.509 56.8761 37.4985 56.9869 37.4868C58.8325 37.3249 60.6669 37.9021 62.0876 39.0918C59.4061 35.1551 56.6301 35.3907 56.6301 35.3907C56.3562 35.4019 56.0972 35.5186 55.9073 35.7164C55.7173 35.9142 55.6113 36.1779 55.6112 36.4522L55.617 36.4533Z" fill="url(#paint2_linear_695_371)"/>
<path d="M101.229 87.3433C100.673 87.0797 98.1206 86.1769 94.0401 89.2842C93.9515 89.3507 93.8617 89.416 93.772 89.4802C92.9559 90.0634 90.5565 92.7299 90.5565 92.7299C90.5565 92.7299 86.3162 97.3116 75.4294 99.9244C75.4294 99.9244 82.5878 96.1918 83.791 92.4453C84.9499 88.8293 86.174 85.3301 82.2392 74.9815C78.2321 64.4394 71.4141 47.5868 71.2031 47.0654L82.6752 71.7015C82.6752 71.7015 85.2028 76.2331 86.7464 80.7378C86.891 81.1566 87.0263 81.5753 87.1498 81.9906C87.2276 82.241 87.2948 82.4937 87.3515 82.7487C88.0425 85.5961 87.7401 88.5942 86.4946 91.2462C86.187 91.8991 85.8119 92.5179 85.3754 93.0926C85.7321 92.668 88.7855 88.8713 88.4824 83.4568C88.7051 83.5221 88.9359 83.5551 89.168 83.5548C89.7109 83.5549 90.2384 83.3746 90.6677 83.042C91.097 82.7094 91.4036 82.2436 91.5393 81.7176C92.1817 82.1352 95.895 84.4576 99.81 84.867C100.181 86.0929 100.673 86.9735 101.229 87.3433Z" fill="white"/>
<path d="M86.4038 77.8286C86.6614 77.8286 86.8702 77.6198 86.8702 77.3621C86.8702 77.1044 86.6614 76.8955 86.4038 76.8955C86.1463 76.8955 85.9375 77.1044 85.9375 77.3621C85.9375 77.6198 86.1463 77.8286 86.4038 77.8286Z" fill="white"/>
<path d="M87.6104 79.9727C88.1255 79.9727 88.5431 79.5549 88.5431 79.0396C88.5431 78.5242 88.1255 78.1064 87.6104 78.1064C87.0953 78.1064 86.6777 78.5242 86.6777 79.0396C86.6777 79.5549 87.0953 79.9727 87.6104 79.9727Z" fill="white"/>
<path d="M89.329 82.7677C90.0695 82.7677 90.6698 82.1672 90.6698 81.4264C90.6698 80.6855 90.0695 80.085 89.329 80.085C88.5886 80.085 87.9883 80.6855 87.9883 81.4264C87.9883 82.1672 88.5886 82.7677 89.329 82.7677Z" fill="white"/>
<path d="M90.6913 71.2195C88.9938 70.326 87.5749 68.9858 86.4219 67.5546C85.8984 66.8466 84.2067 64.3422 81.8913 58.8064L81.1918 56.9599L75.9804 43.2509C75.9768 43.2544 75.9724 43.2568 75.9676 43.2579C75.851 43.2929 75.5968 43.3407 75.0535 43.2159L75.0267 43.2101C74.4272 43.0523 73.8448 42.8351 73.2884 42.5616C73.2173 42.5266 73.145 42.4927 73.0739 42.4601C72.6892 42.2816 72.3126 42.123 71.9512 41.9854L74.9556 48.5022L81.1347 61.8881C83.105 65.9368 84.4481 68.139 85.2595 69.3031L85.2724 69.3206C90.7741 76.5617 97.8252 77.1496 99.2044 77.1939C99.3548 75.5353 99.6708 74.0866 100.106 73.0275C99.2091 73.0706 94.8569 73.7705 90.6913 71.2195Z" fill="white"/>
<path d="M99.4472 83.3697C99.4472 83.3464 99.4379 83.3219 99.4344 83.2986C99.3388 82.7819 99.2618 82.2301 99.207 81.6528C99.1359 80.9237 99.0974 80.1527 99.0974 79.3561C99.0974 79.2009 99.0974 79.0458 99.0974 78.8895C99.0974 78.8557 99.0974 78.8218 99.0974 78.7892C93.7613 78.2713 90.3709 75.6573 86.9526 72.2082C83.5133 68.7381 80.482 61.4188 80.482 61.4188L77.4846 54.9638L71.4116 41.7901C70.5936 41.4981 69.7549 41.2672 68.9027 41.0996H68.8887L81.3903 67.9321C81.8955 69.0169 82.445 70.0783 83.0388 71.1164C83.6326 72.1545 84.2692 73.1655 84.9485 74.1491C89.4545 81.3098 98.7733 83.2648 99.453 83.4001C99.4507 83.3919 99.4495 83.3802 99.4472 83.3697Z" fill="url(#paint3_linear_695_371)"/>
<path d="M104.856 65.0808L104.848 65.0866C104.483 64.01 103.51 62.7538 101.234 62.741C100.341 62.7203 99.4716 63.0241 98.7857 63.5959C96.8038 65.3094 97.4252 68.5381 99.9026 69.0175C101.663 69.3581 103.253 67.7974 103.018 66.2624C102.965 65.8776 102.785 65.5215 102.507 65.2505C102.229 64.9796 101.868 64.8095 101.482 64.767C100.985 64.7239 100.481 64.7869 99.9504 65.4902C99.8592 65.6079 99.7935 65.7434 99.7576 65.888C99.7216 66.0325 99.7162 66.183 99.7417 66.3297C99.7672 66.4765 99.823 66.6163 99.9056 66.7403C99.9882 66.8642 100.096 66.9696 100.221 67.0496C100.347 67.1296 100.488 67.1826 100.635 67.205C100.782 67.2274 100.932 67.2189 101.076 67.1799C101.22 67.141 101.354 67.0724 101.47 66.9787C101.585 66.885 101.68 66.7682 101.748 66.6357C101.773 66.5904 101.809 66.5521 101.853 66.524C101.896 66.496 101.946 66.479 101.998 66.4747C102.025 66.4792 102.051 66.4907 102.073 66.508C102.095 66.5253 102.113 66.548 102.124 66.5738C102.166 66.6823 102.161 66.8386 102.057 67.0602C101.634 67.9642 99.898 68.4996 99.0259 67.199C98.246 66.0326 99.0259 63.8782 101.08 63.7942C103.223 63.7068 104.6 66.1049 103.569 68.3596C102.5 70.6995 99.0691 71.4413 94.282 70.1956C89.5509 68.9627 86.8205 66.7908 84.8047 62.2266C84.8047 62.2266 85.8388 67.4195 92.2989 70.2061C97.3995 72.4071 101.653 72.2928 103.712 70.0999C105.933 68.0225 104.856 65.0808 104.856 65.0808Z" fill="url(#paint4_linear_695_371)"/>
<path d="M29.8887 87.3433C30.4448 87.0797 32.9922 86.1769 37.0786 89.2842C37.1672 89.3507 37.2569 89.416 37.3467 89.4802C38.1628 90.0634 40.5622 92.7299 40.5622 92.7299C40.5622 92.7299 44.8024 97.3116 55.6846 99.9244C55.6846 99.9244 48.5262 96.1918 47.323 92.4453C46.1642 88.8293 44.94 85.3301 48.8748 74.9815C52.8865 64.4394 59.7034 47.5868 59.9144 47.0654L48.4423 71.7015C48.4423 71.7015 45.9147 76.2331 44.3757 80.7378C44.2312 81.1566 44.0959 81.5753 43.9723 81.9906C43.8946 82.241 43.8274 82.4937 43.7706 82.7487C43.0797 85.5961 43.3821 88.5942 44.6275 91.2462C44.9352 91.8991 45.3103 92.5179 45.7468 93.0926C45.39 92.668 42.3366 88.8713 42.6397 83.4568C42.4171 83.5221 42.1862 83.5551 41.9542 83.5548C41.4113 83.5549 40.8837 83.3746 40.4545 83.042C40.0252 82.7094 39.7186 82.2436 39.5828 81.7176C38.9405 82.1352 35.2272 84.4576 31.3122 84.867C30.9368 86.0929 30.4448 86.9735 29.8887 87.3433Z" fill="white"/>
<path d="M44.7124 77.8286C44.97 77.8286 45.1788 77.6198 45.1788 77.3621C45.1788 77.1044 44.97 76.8955 44.7124 76.8955C44.4549 76.8955 44.2461 77.1044 44.2461 77.3621C44.2461 77.6198 44.4549 77.8286 44.7124 77.8286Z" fill="white"/>
<path d="M43.505 79.9727C44.0201 79.9727 44.4377 79.5549 44.4377 79.0396C44.4377 78.5242 44.0201 78.1064 43.505 78.1064C42.9898 78.1064 42.5723 78.5242 42.5723 79.0396C42.5723 79.5549 42.9898 79.9727 43.505 79.9727Z" fill="white"/>
<path d="M41.7861 82.7677C42.5265 82.7677 43.1268 82.1672 43.1268 81.4264C43.1268 80.6855 42.5265 80.085 41.7861 80.085C41.0456 80.085 40.4453 80.6855 40.4453 81.4264C40.4453 82.1672 41.0456 82.7677 41.7861 82.7677Z" fill="white"/>
<path d="M40.4246 71.2195C42.1221 70.326 43.5409 68.9858 44.6928 67.5546C45.2174 66.8466 46.9138 64.3422 49.2245 58.8064L49.924 56.9599L55.1355 43.2509C55.139 43.2544 55.1435 43.2568 55.1483 43.2579C55.259 43.2929 55.519 43.3407 56.0623 43.2159L56.0891 43.2101C56.6895 43.0525 57.2726 42.8352 57.8298 42.5616C57.9009 42.5266 57.9732 42.4927 58.0443 42.4601C58.429 42.2816 58.8056 42.123 59.167 41.9854L56.1626 48.5022L49.9835 61.8881C48.0132 65.9368 46.6701 68.139 45.8587 69.3031L45.8458 69.3206C40.3511 76.5617 33.2976 77.1531 31.9207 77.1939C31.7703 75.5353 31.4544 74.0866 31.0195 73.0275C31.9068 73.0706 36.2554 73.7705 40.4246 71.2195Z" fill="white"/>
<path d="M31.668 83.3697C31.668 83.3464 31.6773 83.3219 31.6808 83.2986C31.7764 82.7819 31.8533 82.2301 31.914 81.6528C31.9851 80.9237 32.0236 80.1527 32.0236 79.3561C32.0236 79.2009 32.0236 79.0458 32.0236 78.8895C32.0236 78.8557 32.0236 78.8218 32.0236 78.7892C37.3597 78.2713 40.7501 75.6573 44.1684 72.2082C47.6077 68.7381 50.6389 61.4188 50.6389 61.4188L53.641 54.9603L59.7164 41.7866C60.5307 41.4963 61.3654 41.2667 62.2136 41.0996H62.2276L49.7272 67.9321C49.222 69.0169 48.6725 70.0783 48.0787 71.1164C47.4849 72.1545 46.8483 73.1655 46.169 74.1491C41.6629 81.3122 32.3442 83.2671 31.668 83.4024C31.668 83.3919 31.668 83.3802 31.668 83.3697Z" fill="url(#paint5_linear_695_371)"/>
<path d="M26.2605 65.0808L26.2675 65.0866C26.6324 64.01 27.6071 62.7538 29.8817 62.741C30.7743 62.7199 31.6443 63.0237 32.33 63.5959C34.312 65.3094 33.6905 68.5381 31.2143 69.0175C29.4526 69.3581 27.8624 67.7974 28.0991 66.2624C28.1516 65.8775 28.3313 65.5213 28.6095 65.2503C28.8878 64.9794 29.2485 64.8093 29.6345 64.767C30.1323 64.7239 30.636 64.7869 31.1653 65.4902C31.2574 65.6078 31.3239 65.7434 31.3605 65.8882C31.3971 66.0331 31.4031 66.184 31.3779 66.3312C31.3527 66.4785 31.297 66.6188 31.2144 66.7433C31.1318 66.8677 31.024 66.9735 30.8981 67.0538C30.7722 67.1341 30.6308 67.1871 30.4832 67.2095C30.3355 67.2319 30.1849 67.2231 30.0408 67.1837C29.8968 67.1443 29.7626 67.0752 29.6468 66.9808C29.531 66.8864 29.4363 66.7689 29.3687 66.6357C29.3435 66.5904 29.3075 66.5521 29.264 66.524C29.2205 66.496 29.1708 66.479 29.1192 66.4747C29.0917 66.4793 29.0658 66.4908 29.044 66.5081C29.0222 66.5255 29.0051 66.5481 28.9944 66.5738C28.9513 66.6823 28.9571 66.8386 29.0609 67.0602C29.4829 67.9642 31.2201 68.4996 32.0921 67.199C32.8709 66.0326 32.0921 63.8782 30.0367 63.7942C27.895 63.7068 26.5181 66.1049 27.5476 68.3596C28.6179 70.6995 32.0478 71.4413 36.8361 70.1956C41.5671 68.9627 44.2976 66.7908 46.3122 62.2266C46.3122 62.2266 45.2793 67.4195 38.8192 70.2061C33.7174 72.4071 29.4655 72.2928 27.4065 70.0999C25.1844 68.0225 26.2605 65.0808 26.2605 65.0808Z" fill="url(#paint6_linear_695_371)"/>
<path d="M65.5572 107.283H64.5195C64.5195 107.283 65.1678 110.342 65.5572 110.957C65.9454 110.342 66.5936 107.283 66.5936 107.283H65.5572Z" fill="#2E77CE"/>
<path d="M65.9518 108.77C65.9518 108.77 68.6776 109.82 73.9823 109.019C77.2309 108.516 80.3974 107.58 83.3966 106.233C83.3966 106.233 72.3559 111.511 65.7629 109.908L65.6895 109.179L65.9518 108.77Z" fill="#2E77CE"/>
<path d="M65.1644 108.77C65.1644 108.77 62.4398 109.82 57.1351 109.019C53.8864 108.516 50.7199 107.58 47.7207 106.233C47.7207 106.233 58.7673 111.511 65.3544 109.908L65.4267 109.179L65.1644 108.77Z" fill="#2E77CE"/>
<defs>
<linearGradient id="paint0_linear_695_371" x1="23.6367" y1="99.6751" x2="45.583" y2="99.6751" gradientUnits="userSpaceOnUse">
<stop stop-color="#734506"/>
<stop offset="0.48" stop-color="#F4D489"/>
<stop offset="1" stop-color="#734506"/>
</linearGradient>
<linearGradient id="paint1_linear_695_371" x1="85.7134" y1="99.5668" x2="107.659" y2="99.5668" gradientUnits="userSpaceOnUse">
<stop stop-color="#734506"/>
<stop offset="0.48" stop-color="#F4D489"/>
<stop offset="1" stop-color="#734506"/>
</linearGradient>
<linearGradient id="paint2_linear_695_371" x1="75.1441" y1="41.7746" x2="55.961" y2="22.6007" gradientUnits="userSpaceOnUse">
<stop stop-color="#734506"/>
<stop offset="0.5" stop-color="#E3C178"/>
<stop offset="1" stop-color="#794B0C"/>
</linearGradient>
<linearGradient id="paint3_linear_695_371" x1="68.8887" y1="62.2493" x2="99.453" y2="62.2493" gradientUnits="userSpaceOnUse">
<stop stop-color="#734506"/>
<stop offset="0.48" stop-color="#F4D489"/>
<stop offset="1" stop-color="#734506"/>
</linearGradient>
<linearGradient id="paint4_linear_695_371" x1="84.8059" y1="67.0171" x2="105.116" y2="67.0171" gradientUnits="userSpaceOnUse">
<stop stop-color="#734506"/>
<stop offset="0.04" stop-color="#815514"/>
<stop offset="0.19" stop-color="#B28B46"/>
<stop offset="0.31" stop-color="#D6B36A"/>
<stop offset="0.42" stop-color="#ECCB81"/>
<stop offset="0.48" stop-color="#F4D489"/>
<stop offset="0.55" stop-color="#ECCB81"/>
<stop offset="0.66" stop-color="#D6B36A"/>
<stop offset="0.8" stop-color="#B28B46"/>
<stop offset="0.96" stop-color="#815514"/>
<stop offset="1" stop-color="#734506"/>
</linearGradient>
<linearGradient id="paint5_linear_695_371" x1="31.6645" y1="62.2493" x2="62.2288" y2="62.2493" gradientUnits="userSpaceOnUse">
<stop stop-color="#734506"/>
<stop offset="0.48" stop-color="#F4D489"/>
<stop offset="1" stop-color="#734506"/>
</linearGradient>
<linearGradient id="paint6_linear_695_371" x1="25.9993" y1="67.0171" x2="46.3099" y2="67.0171" gradientUnits="userSpaceOnUse">
<stop stop-color="#734506"/>
<stop offset="0.04" stop-color="#815514"/>
<stop offset="0.19" stop-color="#B28B46"/>
<stop offset="0.31" stop-color="#D6B36A"/>
<stop offset="0.42" stop-color="#ECCB81"/>
<stop offset="0.48" stop-color="#F4D489"/>
<stop offset="0.55" stop-color="#ECCB81"/>
<stop offset="0.66" stop-color="#D6B36A"/>
<stop offset="0.8" stop-color="#B28B46"/>
<stop offset="0.96" stop-color="#815514"/>
<stop offset="1" stop-color="#734506"/>
</linearGradient>
</defs>
</svg>
